<svg width="258" height="56" viewBox="0 0 258 56" fill="none" xmlns="http://www.w3.org/2000/svg">
<g clip-path="url(#clip0_4493_16373)">
<path d="M191.999 22.9438V0.546875H201.581C201.611 1.0466 201.687 1.54633 201.687 2.04606C201.687 19.2792 201.687 36.4971 201.717 53.7302C201.717 54.8811 201.46 55.3354 200.221 55.29C197.697 55.1991 195.173 55.2597 192.467 55.2597V51.1558C192.195 51.1861 192.074 51.1558 192.029 51.2164C182.764 60.0601 167.756 55.7594 164.597 43.1905C162.677 35.5279 163.796 28.3954 169.72 22.6107C175.222 17.2197 185.621 16.5837 191.228 22.4138C191.379 22.5653 191.591 22.6713 191.984 22.959L191.999 22.9438ZM192.498 37.2391C192.498 32.2873 189.686 28.3803 185.379 27.3203C181.192 26.3057 177.232 27.8957 175.086 31.4544C172.834 35.2099 173.257 41.025 176.023 44.1596C178.532 46.9914 182.688 47.9758 186.407 46.5977C190.2 45.1894 192.498 41.6761 192.513 37.2543L192.498 37.2391Z" fill="white"/>
<path d="M78.3901 47.6282C80.5212 44.9932 82.5314 42.5097 84.466 40.1019C86.3855 41.5406 88.1237 43.0549 90.0432 44.2361C93.1567 46.1441 96.5877 46.9316 100.23 46.2501C103.253 45.6898 104.991 44.0695 105.339 41.7071C105.732 39.0116 104.689 36.9824 101.772 35.6347C98.8246 34.2718 95.6808 33.348 92.7335 32.0003C90.2699 30.8797 87.7156 29.7136 85.6147 28.0479C77.5588 21.6271 78.6622 9.48215 87.7156 4.36371C94.7135 0.411303 101.802 1.19876 108.77 4.48486C110.901 5.48432 112.851 6.92293 115.027 8.2404C112.896 11.0268 110.961 13.5708 108.951 16.1906C107.818 15.4032 106.775 14.5855 105.641 13.904C102.573 12.0414 99.3687 10.5573 95.6203 11.2842C93.066 11.7839 91.479 13.3286 91.1012 15.6606C90.7384 17.8261 91.5546 19.507 93.988 20.7639C96.5272 22.0663 99.2175 23.1111 101.847 24.2469C104.039 25.2009 106.261 26.0944 108.422 27.1241C117.067 31.2431 117.4 39.5871 115.208 45.5081C113.123 51.1717 108.558 54.0792 102.951 55.2604C93.4892 57.2745 85.4182 54.3972 78.375 47.6433L78.3901 47.6282Z" fill="white"/>
<path d="M132.306 40.2532C133.742 47.5825 144.292 50.0963 150.202 43.2516C152.227 45.1445 154.252 47.0222 156.368 49.006C154.343 51.7015 151.728 53.5187 148.645 54.5182C140.997 57.0017 133.742 56.5171 127.576 50.8081C119.051 42.9184 120.124 25.1704 132.609 19.8248C142.72 15.4939 156.565 20.158 157.744 34.953C157.85 36.2402 157.729 37.5425 157.774 38.8297C157.819 39.9503 157.336 40.2683 156.232 40.2683C148.811 40.2229 141.39 40.238 133.969 40.238C133.455 40.238 132.941 40.238 132.306 40.238V40.2532ZM132.367 33.2267H148.071C147.511 29.456 144.428 26.9119 140.574 26.8362C136.418 26.7605 133.077 29.2894 132.382 33.2267H132.367Z" fill="white"/>
<path d="M257.963 55.2155H248.351C248.351 54.5643 248.351 54.004 248.351 53.4437C248.351 47.9316 248.351 42.4043 248.351 36.8921C248.351 35.7412 248.275 34.5903 248.154 33.4394C247.671 28.7753 245.116 26.0646 239.116 27.3367C235.443 28.109 233.221 31.4405 233.146 35.9684C233.055 41.7682 233.116 47.5833 233.101 53.3832C233.101 53.9435 233.101 54.5038 233.101 55.1701H223.533V19.0533H233.07V23.6114C233.781 22.9602 234.204 22.5514 234.657 22.1728C239.192 18.281 244.361 17.4026 249.983 19.129C253.611 20.2344 255.893 22.8391 256.936 26.3978C257.495 28.3058 257.873 30.335 257.918 32.3188C258.039 39.6179 257.979 46.9018 257.979 54.2009C257.979 54.5189 257.979 54.8369 257.979 55.2307L257.963 55.2155Z" fill="white"/>
<path d="M217.303 55.201H207.75C207.72 54.6559 207.675 54.1561 207.675 53.6413C207.675 42.6169 207.69 31.5774 207.645 20.5531C207.645 19.3114 207.932 18.8571 209.232 18.9025C211.892 18.9933 214.567 18.9328 217.303 18.9328V55.2162V55.201Z" fill="white"/>
<path d="M212.551 1.89362C215.831 1.89362 218.536 4.55884 218.552 7.78437C218.552 11.0705 215.786 13.7963 212.476 13.766C209.287 13.7206 206.581 11.0705 206.536 7.92066C206.49 4.61941 209.226 1.87847 212.551 1.89362Z" fill="white"/>
<path d="M27.9462 0C12.5146 0 0 12.5387 0 28C0 43.4613 12.5146 56 27.9462 56C43.3779 56 55.8924 43.4613 55.8924 28C55.8924 12.5387 43.3779 0 27.9462 0ZM27.9462 37.5252C22.6865 37.5252 18.4394 33.2547 18.4394 28C18.4394 22.7453 22.7016 18.4749 27.9462 18.4749C33.1909 18.4749 37.4531 22.7453 37.4531 28C37.4531 33.2547 33.1909 37.5252 27.9462 37.5252Z" fill="white"/>
</g>
<defs>
<clipPath id="clip0_4493_16373">
<rect width="258" height="56" fill="white"/>
</clipPath>
</defs>
</svg>
